<svg id="Capa_1" enable-background="new 0 0 512 512" height="512" viewBox="0 0 512 512" width="512" xmlns="http://www.w3.org/2000/svg"><g><path d="m256 352c-46.869 0-85-38.131-85-85v-120c0-46.869 38.131-85 85-85s85 38.131 85 85v120c0 46.869-38.131 85-85 85z"/><g><path d="m396 192h-25v30h10v45c0 68.925-56.075 125-125 125s-125-56.075-125-125v-45h10v-30h-25c-8.284 0-15 6.716-15 15v60c0 85.467 69.532 155 155 155s155-69.533 155-155v-60c0-8.284-6.716-15-15-15z"/></g><path d="m308.5 482h-37.5v-30.61c-4.949.399-9.95.611-15 .611s-10.051-.212-15-.611v30.61h-37.5c-8.284 0-15 6.716-15 15s6.716 15 15 15h105c8.284 0 15-6.716 15-15s-6.716-15-15-15z"/><g><g><circle cx="377" cy="99.853" r="15"/><path d="m419.427 157.28c-3.839 0-7.678-1.464-10.606-4.393-5.858-5.858-5.858-15.355 0-21.213 17.545-17.545 17.545-46.095 0-63.64-5.858-5.858-5.858-15.355 0-21.213 5.858-5.857 15.356-5.857 21.213 0 29.241 29.243 29.241 76.823 0 106.066-2.929 2.928-6.768 4.393-10.607 4.393z"/><path d="m461.853 199.706c-3.839 0-7.678-1.464-10.606-4.394-5.858-5.858-5.858-15.355 0-21.213 19.831-19.832 30.753-46.199 30.753-74.246 0-28.046-10.922-54.414-30.754-74.246-5.858-5.857-5.858-15.355 0-21.213 5.857-5.858 15.355-5.858 21.213 0 25.498 25.498 39.541 59.399 39.541 95.459s-14.043 69.961-39.541 95.459c-2.929 2.929-6.768 4.394-10.606 4.394z"/></g></g><g><g><circle cx="135" cy="99.853" r="15"/><path d="m92.573 157.28c-3.839 0-7.678-1.464-10.606-4.394-29.241-29.243-29.241-76.823 0-106.066 5.857-5.857 15.355-5.858 21.213 0s5.858 15.355 0 21.213c-17.545 17.545-17.545 46.095 0 63.64 5.858 5.858 5.858 15.355 0 21.213-2.929 2.929-6.769 4.394-10.607 4.394z"/><path d="m50.148 199.706c-3.839 0-7.678-1.464-10.606-4.394-25.499-25.498-39.542-59.399-39.542-95.459s14.043-69.961 39.541-95.459c5.858-5.858 15.356-5.857 21.213 0 5.858 5.858 5.858 15.355 0 21.213-19.832 19.832-30.754 46.199-30.754 74.246s10.922 54.415 30.754 74.247c5.858 5.857 5.858 15.355 0 21.213-2.929 2.928-6.768 4.393-10.606 4.393z"/></g></g></g></svg>